<svg width="27" height="27" viewBox="0 0 27 27" fill="none" xmlns="http://www.w3.org/2000/svg">
<circle cx="13.5" cy="13.5" r="13.5" fill="#FFDB57" fill-opacity="0.5"/>
<path fill-rule="evenodd" clip-rule="evenodd" d="M9.86879 14.7301C10.2293 14.0767 10.9169 13.6713 11.6631 13.6724C12.546 13.6854 13.3209 14.2634 13.5851 15.1059C13.8493 15.9485 13.5433 16.8654 12.8259 17.3803C12.1086 17.8952 11.1419 17.8918 10.4282 17.3719L9.66945 18.1621C9.59452 18.2375 9.49315 18.2807 9.38688 18.2825C9.28517 18.2835 9.18723 18.244 9.11478 18.1726C8.96174 18.0193 8.96174 17.7711 9.11478 17.6179L9.87353 16.812H9.93109C9.5322 16.1813 9.50833 15.3835 9.86879 14.7301ZM10.4023 15.7184C10.4023 16.4149 10.967 16.9795 11.6634 16.9795V16.9638C12.3538 16.9638 12.916 16.4087 12.9245 15.7184C12.9245 15.0219 12.3599 14.4573 11.6634 14.4573C10.967 14.4573 10.4023 15.0219 10.4023 15.7184Z" fill="#0B1C3F"/>
<path fill-rule="evenodd" clip-rule="evenodd" d="M14.1961 8.11512L17.859 11.7781C17.9463 11.8507 17.9978 11.9576 18.0003 12.0711V15.7341C18.0003 16.3933 17.7384 17.0255 17.2723 17.4916C16.8062 17.9578 16.174 18.2196 15.5147 18.2196H14.0129C13.7962 18.2196 13.6205 18.0439 13.6205 17.8272C13.6205 17.6104 13.7962 17.4347 14.0129 17.4347H15.4886C16.4278 17.4347 17.1892 16.6733 17.1892 15.7341V12.4636H14.9653C14.1717 12.4607 13.5292 11.8181 13.5263 11.0246V8.80062H12.3489C11.4109 8.80349 10.6511 9.56322 10.6482 10.5013V13.1177C10.6482 13.3344 10.4725 13.5101 10.2558 13.5101C10.039 13.5101 9.86333 13.3344 9.86333 13.1177V10.5013C9.85915 9.83934 10.1192 9.20309 10.5858 8.73355C11.0524 8.26401 11.687 7.99999 12.3489 8H13.9187C14.0228 8.00009 14.1226 8.0415 14.1961 8.11512ZM14.3124 9.3396V11.0246C14.3124 11.3858 14.6053 11.6787 14.9665 11.6787H16.6305L14.3124 9.3396Z" fill="#0B1C3F"/>
</svg>
