<svg width="27" height="27" viewBox="0 0 27 27" fill="none" xmlns="http://www.w3.org/2000/svg">
<circle cx="13.5" cy="13.5" r="13.5" fill="#FFDB57" fill-opacity="0.5"/>
<path fill-rule="evenodd" clip-rule="evenodd" d="M10.4712 8.12961C10.9297 8.12976 11.3503 8.38404 11.5635 8.78995L12.7793 11.1351C12.9772 11.5171 12.9619 11.9747 12.7389 12.3426C12.5158 12.7106 12.1172 12.9358 11.687 12.9371H9.25545C8.82078 12.9445 8.41424 12.7228 8.1852 12.3533C7.95616 11.9838 7.93839 11.521 8.13843 11.1351L9.3727 8.78995C9.58693 8.38207 10.0105 8.12746 10.4712 8.12961ZM11.6852 12.0237C11.7935 12.0243 11.8943 11.9681 11.9506 11.8756V11.8632C12.0068 11.7791 12.0161 11.672 11.9753 11.5794L10.741 9.23426C10.6947 9.13558 10.5969 9.07121 10.488 9.06763C10.3723 9.06357 10.2645 9.12587 10.2103 9.22809L8.976 11.5732C8.92613 11.6694 8.93042 11.7848 8.9873 11.8771C9.04419 11.9694 9.14532 12.025 9.25371 12.0237H11.6852Z" fill="#0B1C3F"/>
<path fill-rule="evenodd" clip-rule="evenodd" d="M18.9996 10.4685C18.9996 11.8319 17.8944 12.9371 16.531 12.9371C15.1677 12.9371 14.0625 11.8319 14.0625 10.4685C14.0625 9.1052 15.1677 8 16.531 8C17.8944 8 18.9996 9.1052 18.9996 10.4685ZM18.0739 10.4685C18.0739 9.61645 17.3831 8.9257 16.531 8.9257C16.1218 8.9257 15.7294 9.08825 15.4401 9.37759C15.1507 9.66693 14.9882 10.0594 14.9882 10.4685C14.9882 11.3206 15.6789 12.0114 16.531 12.0114C17.3831 12.0114 18.0739 11.3206 18.0739 10.4685Z" fill="#0B1C3F"/>
<path fill-rule="evenodd" clip-rule="evenodd" d="M15.2968 14.1714H17.7653C18.447 14.1714 18.9996 14.724 18.9996 15.4057V17.8742C18.9996 18.5559 18.447 19.1085 17.7653 19.1085H15.2968C14.6151 19.1085 14.0625 18.5559 14.0625 17.8742V15.4057C14.0625 14.724 14.6151 14.1714 15.2968 14.1714ZM17.7653 18.1829C17.9357 18.1829 18.0739 18.0447 18.0739 17.8743V15.4058C18.0739 15.2354 17.9357 15.0972 17.7653 15.0972H15.2968C15.1263 15.0972 14.9882 15.2354 14.9882 15.4058V17.8743C14.9882 18.0447 15.1263 18.1829 15.2968 18.1829H17.7653Z" fill="#0B1C3F"/>
<path d="M12.6512 14.2701C12.5652 14.1818 12.4473 14.1321 12.3241 14.1321C12.2009 14.1321 12.083 14.1818 11.997 14.2701L10.4727 15.7944L8.94839 14.2701C8.76602 14.1001 8.48183 14.1051 8.30556 14.2814C8.1293 14.4577 8.12429 14.7418 8.29422 14.9242L9.8062 16.4485L8.29422 17.9729C8.206 18.0588 8.15625 18.1768 8.15625 18.2999C8.15625 18.4231 8.206 18.5411 8.29422 18.627C8.38168 18.7127 8.49886 18.7614 8.6213 18.7628C8.74349 18.7601 8.86023 18.7117 8.94839 18.627L10.4727 17.1027L11.997 18.627C12.0845 18.7127 12.2017 18.7614 12.3241 18.7628C12.4463 18.7601 12.563 18.7117 12.6512 18.627C12.8317 18.4463 12.8317 18.1536 12.6512 17.9729L11.1269 16.4485L12.6512 14.9242C12.8317 14.7435 12.8317 14.4508 12.6512 14.2701V14.2701Z" fill="#0B1C3F"/>
</svg>
