<svg width="27" height="27" viewBox="0 0 27 27" fill="none" xmlns="http://www.w3.org/2000/svg">
<circle cx="13.5" cy="13.5" r="13.5" fill="#FFDB57" fill-opacity="0.5"/>
<path fill-rule="evenodd" clip-rule="evenodd" d="M10.4855 8H16.7073C18.1246 8.04864 19.2355 9.23462 19.1915 10.6521V14.3001C19.2126 14.9847 18.9599 15.6494 18.4895 16.1472C18.019 16.6449 17.3696 16.9346 16.6849 16.9522H11.3583C10.9897 16.9598 10.6402 17.1174 10.3904 17.3886L9.06434 18.8042C8.95199 18.9267 8.79413 18.9975 8.62792 19C8.45625 18.9956 8.29345 18.9228 8.17575 18.7978C8.05806 18.6727 7.99523 18.5058 8.00126 18.3342V10.6521C7.95727 9.23462 9.06818 8.04864 10.4855 8ZM16.7085 16.113C17.6624 16.0647 18.3978 15.2543 18.3534 14.3002V10.6522C18.3978 9.69805 17.6624 8.88762 16.7085 8.83936H10.4867C9.53278 8.88762 8.79739 9.69805 8.84175 10.6522V17.8139L9.75375 16.818C10.1708 16.3743 10.7507 16.1198 11.3596 16.113H16.7085Z" fill="#0B1C3F"/>
<path d="M11.4978 11.7768H14.2953C14.5271 11.7768 14.715 11.5889 14.715 11.3571C14.715 11.1254 14.5271 10.9375 14.2953 10.9375H11.4978C11.266 10.9375 11.0781 11.1254 11.0781 11.3571C11.0781 11.5889 11.266 11.7768 11.4978 11.7768V11.7768Z" fill="#0B1C3F"/>
<path d="M15.6941 13.1755H11.4978C11.266 13.1755 11.0781 13.3634 11.0781 13.5952C11.0781 13.8269 11.266 14.0148 11.4978 14.0148H15.6941C15.9259 14.0148 16.1137 13.8269 16.1137 13.5952C16.1137 13.3634 15.9259 13.1755 15.6941 13.1755Z" fill="#0B1C3F"/>
</svg>
