<svg width="110" height="43" viewBox="0 0 110 43" fill="none" xmlns="http://www.w3.org/2000/svg">
<path d="M0.683594 14.1151C0.683594 12.3913 1.02789 10.8804 1.71649 9.58246C2.42534 8.26422 3.39747 7.25024 4.63289 6.54041C5.86829 5.83058 7.28602 5.47569 8.88597 5.47569C10.9112 5.47569 12.5821 5.96242 13.8985 6.93588C15.2352 7.88908 16.1365 9.258 16.6023 11.0427H12.8656C12.5619 10.2111 12.0758 9.5622 11.4074 9.09574C10.7391 8.62927 9.89863 8.39606 8.88597 8.39606C7.4683 8.39606 6.33412 8.90305 5.48351 9.91709C4.65314 10.9108 4.23796 12.3102 4.23796 14.1151C4.23796 15.9201 4.65314 17.3295 5.48351 18.3436C6.33412 19.3576 7.4683 19.8646 8.88597 19.8646C10.891 19.8646 12.2175 18.9824 12.8656 17.218H16.6023C16.1162 18.9216 15.2048 20.2803 13.8682 21.2944C12.5315 22.2881 10.8708 22.785 8.88597 22.785C7.28602 22.785 5.86829 22.4301 4.63289 21.7203C3.39747 20.9902 2.42534 19.9761 1.71649 18.6782C1.02789 17.36 0.683594 15.8389 0.683594 14.1151ZM27.3143 22.785C25.7346 22.785 24.3068 22.4301 23.0308 21.7203C21.7549 20.9902 20.7524 19.9761 20.0233 18.6782C19.2942 17.36 18.9296 15.8389 18.9296 14.1151C18.9296 12.4116 19.3043 10.9007 20.0537 9.58246C20.803 8.26422 21.8257 7.25024 23.122 6.54041C24.4181 5.83058 25.8662 5.47569 27.4662 5.47569C29.0661 5.47569 30.5142 5.83058 31.8104 6.54041C33.1066 7.25024 34.1293 8.26422 34.8787 9.58246C35.628 10.9007 36.0027 12.4116 36.0027 14.1151C36.0027 15.8187 35.6179 17.3295 34.8483 18.6478C34.0787 19.966 33.0256 20.9902 31.6889 21.7203C30.3724 22.4301 28.9142 22.785 27.3143 22.785ZM27.3143 19.7733C28.2054 19.7733 29.0358 19.5604 29.8054 19.1345C30.5952 18.7086 31.2332 18.0698 31.7193 17.218C32.2053 16.3662 32.4484 15.3319 32.4484 14.1151C32.4484 12.8983 32.2154 11.8742 31.7497 11.0427C31.2838 10.1909 30.6661 9.55204 29.8965 9.12616C29.1269 8.70027 28.2965 8.48733 27.4054 8.48733C26.5143 8.48733 25.6839 8.70027 24.9143 9.12616C24.1649 9.55204 23.5675 10.1909 23.122 11.0427C22.6764 11.8742 22.4536 12.8983 22.4536 14.1151C22.4536 15.9201 22.9093 17.3194 23.8207 18.3132C24.7523 19.2866 25.9168 19.7733 27.3143 19.7733ZM38.2719 14.0543C38.2719 12.371 38.6162 10.8804 39.3048 9.58246C40.0136 8.28454 40.9655 7.28066 42.1604 6.57083C43.3756 5.84074 44.7224 5.47569 46.2008 5.47569C47.2945 5.47569 48.3679 5.71906 49.421 6.20579C50.4945 6.67226 51.3451 7.30092 51.9729 8.09186V0H55.4665V22.5112H51.9729V19.9863C51.4058 20.7975 50.616 21.4667 49.6033 21.994C48.6109 22.5213 47.4667 22.785 46.1705 22.785C44.7123 22.785 43.3756 22.4199 42.1604 21.6898C40.9655 20.9395 40.0136 19.9052 39.3048 18.5869C38.6162 17.2484 38.2719 15.7376 38.2719 14.0543ZM51.9729 14.1151C51.9729 12.9591 51.7299 11.9553 51.2438 11.1035C50.778 10.2517 50.1603 9.60272 49.3907 9.15658C48.6211 8.71043 47.7907 8.48733 46.8996 8.48733C46.0085 8.48733 45.1781 8.71043 44.4085 9.15658C43.6389 9.58246 43.011 10.2213 42.525 11.0731C42.0592 11.9046 41.8262 12.8983 41.8262 14.0543C41.8262 15.2103 42.0592 16.2243 42.525 17.0963C43.011 17.9684 43.6389 18.6376 44.4085 19.1041C45.1983 19.5502 46.0287 19.7733 46.8996 19.7733C47.7907 19.7733 48.6211 19.5502 49.3907 19.1041C50.1603 18.6579 50.778 18.0089 51.2438 17.1572C51.7299 16.2851 51.9729 15.2711 51.9729 14.1151ZM75.3568 13.7197C75.3568 14.3483 75.3161 14.9162 75.2353 15.4232H62.4457C62.5472 16.7617 63.043 17.8366 63.9343 18.6478C64.8256 19.459 65.9192 19.8646 67.2152 19.8646C69.0787 19.8646 70.3947 19.0838 71.1645 17.5222H74.9012C74.395 19.0635 73.4733 20.3311 72.1367 21.3248C70.82 22.2982 69.1795 22.785 67.2152 22.785C65.6155 22.785 64.1773 22.4301 62.9014 21.7203C61.6455 20.9902 60.6533 19.9761 59.9242 18.6782C59.2154 17.36 58.8609 15.8389 58.8609 14.1151C58.8609 12.3913 59.2052 10.8804 59.8938 9.58246C60.6029 8.26422 61.5847 7.25024 62.8406 6.54041C64.1165 5.83058 65.5747 5.47569 67.2152 5.47569C68.7949 5.47569 70.2027 5.82048 71.4379 6.50999C72.6732 7.1995 73.6356 8.17296 74.324 9.43036C75.0123 10.6674 75.3568 12.0972 75.3568 13.7197ZM71.7417 12.6245C71.7217 11.3469 71.266 10.3227 70.3747 9.55204C69.4833 8.78137 68.38 8.39606 67.0633 8.39606C65.8682 8.39606 64.8456 8.78137 63.995 9.55204C63.1444 10.3024 62.6383 11.3266 62.4761 12.6245H71.7417ZM103.591 22.785C102.274 22.785 101.089 22.5518 100.036 22.0853C99.0034 21.5986 98.1832 20.9496 97.5756 20.1384C96.968 19.3069 96.6435 18.3842 96.6034 17.3701H100.188C100.249 18.0799 100.583 18.6782 101.191 19.1649C101.818 19.6314 102.598 19.8646 103.53 19.8646C104.502 19.8646 105.251 19.6821 105.778 19.317C106.325 18.9317 106.598 18.445 106.598 17.8568C106.598 17.2282 106.294 16.7617 105.687 16.4575C105.099 16.1533 104.158 15.8187 102.862 15.4536C101.606 15.1088 100.583 14.7742 99.7932 14.4497C99.0034 14.1253 98.3144 13.6284 97.7275 12.9591C97.16 12.2899 96.8769 11.4077 96.8769 10.3126C96.8769 9.4202 97.1399 8.60901 97.6667 7.87892C98.1929 7.12856 98.9426 6.54041 99.9148 6.11452C100.907 5.68864 102.041 5.47569 103.317 5.47569C105.221 5.47569 106.75 5.96242 107.904 6.93588C109.079 7.88908 109.707 9.19716 109.788 10.8601H106.325C106.264 10.1098 105.96 9.51146 105.413 9.06532C104.867 8.61917 104.127 8.39606 103.196 8.39606C102.284 8.39606 101.586 8.56843 101.1 8.91321C100.613 9.258 100.37 9.71431 100.37 10.2821C100.37 10.7283 100.532 11.1035 100.857 11.4077C101.18 11.7119 101.575 11.9553 102.041 12.1378C102.507 12.3001 103.196 12.513 104.107 12.7766C105.322 13.1011 106.314 13.4357 107.084 13.7805C107.874 14.105 108.552 14.5917 109.12 15.2407C109.687 15.8897 109.98 16.7515 110.001 17.8264C110.001 18.7796 109.737 19.6314 109.211 20.3817C108.684 21.1321 107.935 21.7203 106.963 22.1461C106.011 22.572 104.887 22.785 103.591 22.785Z" fill="#11296B"/>
<path d="M77.9375 13.7195C77.9375 14.3482 77.9782 14.9161 78.059 15.4231H90.8487C90.7472 16.7616 90.2514 17.8365 89.3601 18.6477C88.4688 19.4589 87.3751 19.8645 86.0791 19.8645C84.2157 19.8645 82.8996 19.0837 82.1298 17.5221H78.3932C78.8993 19.0634 79.821 20.331 81.1577 21.3247C82.4743 22.2981 84.1148 22.7849 86.0791 22.7849C87.6789 22.7849 89.117 22.43 90.393 21.7201C91.6488 20.9901 92.641 19.976 93.3701 18.6781C94.0792 17.3598 94.4334 15.8388 94.4334 14.115C94.4334 12.3912 94.0889 10.8803 93.4005 9.58236C92.6915 8.26411 91.7096 7.25014 90.4537 6.5403C89.1778 5.83047 87.7196 5.47559 86.0791 5.47559C84.4994 5.47559 83.0916 5.82037 81.8564 6.50988C80.6212 7.1994 79.6588 8.17285 78.9704 9.43025C78.282 10.6673 77.9375 12.0971 77.9375 13.7195ZM81.5526 12.6244C81.5727 11.3467 82.0284 10.3226 82.9197 9.55194C83.811 8.78126 84.9144 8.39596 86.231 8.39596C87.4261 8.39596 88.4487 8.78126 89.2993 9.55194C90.1499 10.3023 90.656 11.3265 90.8183 12.6244H81.5526Z" fill="#11296B"/>
<path d="M6.09528 37.4718H2.03176L1.28322 39.5465H0L3.36844 30.2707H4.77196L8.12704 39.5465H6.84382L6.09528 37.4718ZM5.74774 36.4813L4.06352 31.7698L2.3793 36.4813H5.74774ZM9.14061 35.8656C9.14061 35.1071 9.29214 34.4468 9.59508 33.8847C9.89809 33.3135 10.3169 32.8718 10.8516 32.5595C11.3952 32.2472 12.0145 32.0911 12.7096 32.0911C13.6096 32.0911 14.3492 32.3097 14.9285 32.7469C15.5166 33.1842 15.9042 33.791 16.0914 34.5673H14.7814C14.6567 34.1211 14.4116 33.7686 14.0462 33.5099C13.6898 33.2511 13.2442 33.1217 12.7096 33.1217C12.0145 33.1217 11.4531 33.3626 11.0253 33.8445C10.5976 34.3174 10.3837 34.9912 10.3837 35.8656C10.3837 36.749 10.5976 37.4317 11.0253 37.9136C11.4531 38.3954 12.0145 38.6363 12.7096 38.6363C13.2442 38.6363 13.6898 38.5114 14.0462 38.2616C14.4027 38.0117 14.6477 37.6548 14.7814 37.1908H16.0914C15.8954 37.9403 15.5032 38.5426 14.9151 38.9977C14.3269 39.4439 13.5918 39.667 12.7096 39.667C12.0145 39.667 11.3952 39.5108 10.8516 39.1985C10.3169 38.8862 9.89809 38.4445 9.59508 37.8734C9.29214 37.3023 9.14061 36.633 9.14061 35.8656ZM17.2599 35.8523C17.2599 35.1027 17.4114 34.4468 17.7144 33.8847C18.0174 33.3135 18.4318 32.8718 18.9575 32.5595C19.4922 32.2472 20.0848 32.0911 20.7353 32.0911C21.3769 32.0911 21.9339 32.2294 22.4062 32.506C22.8784 32.7826 23.2305 33.1307 23.4621 33.55V32.2115H24.6919V39.5465H23.4621V38.1812C23.2215 38.6096 22.8606 38.9665 22.3794 39.2521C21.9072 39.5287 21.3546 39.667 20.7219 39.667C20.0714 39.667 19.4833 39.5064 18.9575 39.1851C18.4318 38.8639 18.0174 38.4132 17.7144 37.8332C17.4114 37.2532 17.2599 36.5929 17.2599 35.8523ZM23.4621 35.8656C23.4621 35.3124 23.3508 34.8305 23.128 34.4201C22.9052 34.0096 22.6022 33.6973 22.219 33.4831C21.8448 33.26 21.4304 33.1485 20.9759 33.1485C20.5214 33.1485 20.1071 33.2556 19.7328 33.4697C19.3585 33.6839 19.06 33.9962 18.8372 34.4067C18.6144 34.8172 18.5031 35.299 18.5031 35.8523C18.5031 36.4144 18.6144 36.9052 18.8372 37.3246C19.06 37.7351 19.3585 38.0518 19.7328 38.2749C20.1071 38.4891 20.5214 38.5962 20.9759 38.5962C21.4304 38.5962 21.8448 38.4891 22.219 38.2749C22.6022 38.0518 22.9052 37.7351 23.128 37.3246C23.3508 36.9052 23.4621 36.4189 23.4621 35.8656ZM26.293 35.8523C26.293 35.1027 26.4445 34.4468 26.7475 33.8847C27.0505 33.3135 27.4648 32.8718 27.9906 32.5595C28.5253 32.2472 29.1223 32.0911 29.7817 32.0911C30.3521 32.0911 30.8823 32.2249 31.3724 32.4926C31.8625 32.7514 32.2368 33.0949 32.4952 33.5233V29.6416H33.725V39.5465H32.4952V38.1679C32.2546 38.6051 31.8981 38.9665 31.4259 39.2521C30.9536 39.5287 30.4011 39.667 29.7684 39.667C29.1178 39.667 28.5253 39.5064 27.9906 39.1851C27.4648 38.8639 27.0505 38.4132 26.7475 37.8332C26.4445 37.2532 26.293 36.5929 26.293 35.8523ZM32.4952 35.8656C32.4952 35.3124 32.3838 34.8305 32.161 34.4201C31.9382 34.0096 31.6353 33.6973 31.2521 33.4831C30.8778 33.26 30.4635 33.1485 30.009 33.1485C29.5545 33.1485 29.1401 33.2556 28.7659 33.4697C28.3916 33.6839 28.0931 33.9962 27.8703 34.4067C27.6475 34.8172 27.5361 35.299 27.5361 35.8523C27.5361 36.4144 27.6475 36.9052 27.8703 37.3246C28.0931 37.7351 28.3916 38.0518 28.7659 38.2749C29.1401 38.4891 29.5545 38.5962 30.009 38.5962C30.4635 38.5962 30.8778 38.4891 31.2521 38.2749C31.6353 38.0518 31.9382 37.7351 32.161 37.3246C32.3838 36.9052 32.4952 36.4189 32.4952 35.8656ZM42.464 35.5979C42.464 35.8299 42.4506 36.0754 42.4239 36.3341H36.5692C36.6137 37.0569 36.8588 37.6235 37.3044 38.034C37.7588 38.4356 38.3069 38.6363 38.9485 38.6363C39.4742 38.6363 39.9109 38.5159 40.2584 38.2749C40.6148 38.0251 40.8644 37.6949 41.007 37.2845H42.3169C42.1209 37.9894 41.7288 38.565 41.1406 39.0111C40.5525 39.4484 39.8218 39.667 38.9485 39.667C38.2534 39.667 37.6296 39.5108 37.0771 39.1985C36.5335 38.8862 36.1058 38.4445 35.7939 37.8734C35.482 37.2934 35.3261 36.6241 35.3261 35.8656C35.3261 35.1071 35.4775 34.4424 35.7805 33.8713C36.0835 33.3002 36.5068 32.863 37.0504 32.5595C37.6029 32.2472 38.2355 32.0911 38.9485 32.0911C39.6436 32.0911 40.2584 32.2427 40.7931 32.5462C41.3278 32.8496 41.7377 33.2689 42.0229 33.8043C42.3169 34.3308 42.464 34.9287 42.464 35.5979ZM41.2075 35.3436C41.2075 34.8796 41.105 34.4825 40.9 34.1524C40.695 33.8133 40.4143 33.559 40.0579 33.3894C39.7104 33.211 39.3228 33.1217 38.895 33.1217C38.2801 33.1217 37.7543 33.318 37.3177 33.7106C36.89 34.1033 36.6449 34.6476 36.5826 35.3436H41.2075ZM52.8783 32.0777C53.4486 32.0777 53.9565 32.1981 54.4021 32.4391C54.8477 32.6711 55.1997 33.0236 55.4581 33.4965C55.7165 33.9694 55.8458 34.545 55.8458 35.2232V39.5465H54.6427V35.3972C54.6427 34.6654 54.46 34.1078 54.0947 33.724C53.7382 33.3314 53.2526 33.1351 52.6377 33.1351C52.005 33.1351 51.5015 33.3403 51.1273 33.7508C50.753 34.1524 50.5659 34.7369 50.5659 35.5042V39.5465H49.3628V35.3972C49.3628 34.6654 49.1801 34.1078 48.8148 33.724C48.4583 33.3314 47.9727 33.1351 47.3578 33.1351C46.7251 33.1351 46.2216 33.3403 45.8474 33.7508C45.4731 34.1524 45.2859 34.7369 45.2859 35.5042V39.5465H44.0696V32.2115H45.2859V33.2689C45.5266 32.8852 45.8474 32.5908 46.2484 32.3855C46.6582 32.1803 47.1083 32.0777 47.5984 32.0777C48.2133 32.0777 48.7568 32.216 49.2292 32.4926C49.7014 32.7693 50.0534 33.1752 50.2851 33.7106C50.4901 33.1931 50.8287 32.7915 51.301 32.506C51.7733 32.2205 52.299 32.0777 52.8783 32.0777ZM64.1499 32.2115L59.7391 42.9999H58.4827L59.9263 39.4662L56.9722 32.2115H58.3223L60.6211 38.1545L62.8934 32.2115H64.1499Z" fill="#FFCB05"/>
</svg>
