<svg width="27" height="27" viewBox="0 0 27 27" fill="none" xmlns="http://www.w3.org/2000/svg">
<circle cx="13.5" cy="13.5" r="13.5" fill="#FFDB57" fill-opacity="0.5"/>
<path fill-rule="evenodd" clip-rule="evenodd" d="M12.3636 8.40209L17.7828 11.5503C18.4743 11.9536 18.9 12.6964 18.9 13.5001C18.9 14.3038 18.4743 15.0466 17.7828 15.4499L12.3636 18.5981C11.6696 19.0009 10.8145 19.0008 10.1206 18.5977C9.42668 18.1947 8.99949 17.4501 9 16.6446V10.3556C8.99949 9.55007 9.42668 8.80546 10.1206 8.40245C10.8145 7.99944 11.6696 7.9993 12.3636 8.40209ZM11.6928 17.4259L17.1119 14.2852C17.3908 14.1252 17.5622 13.8265 17.5604 13.5038C17.5633 13.1788 17.3919 12.8773 17.1119 12.7148L11.6928 9.57414C11.5572 9.49225 11.4024 9.44816 11.2443 9.44641C10.7448 9.44641 10.3398 9.85345 10.3398 10.3556V16.6445C10.3398 16.8856 10.4351 17.1169 10.6047 17.2874C10.7744 17.4579 11.0044 17.5536 11.2443 17.5536C11.4024 17.5519 11.5572 17.5078 11.6928 17.4259Z" fill="#11296B"/>
</svg>
