<svg width="9" height="9" viewBox="0 0 9 9" fill="none" xmlns="http://www.w3.org/2000/svg">
<path fill-rule="evenodd" clip-rule="evenodd" d="M7.5375 1.23711V2.89258C8.33237 2.90663 8.97611 3.54224 9 4.33662V7.54411C8.9883 7.94389 8.81716 8.32239 8.52471 8.59532C8.23225 8.86825 7.84277 9.01293 7.443 8.99714H1.557C1.15723 9.01293 0.767746 8.86825 0.475292 8.59532C0.182838 8.32239 0.0117027 7.94389 0 7.54411V2.69914C0.0144048 1.89772 0.660826 1.25151 1.4625 1.23711C1.4625 0.553872 2.01655 0 2.7 0H6.3C6.98345 0 7.5375 0.553872 7.5375 1.23711ZM3.62622 1.23713C4.09429 1.22451 4.48452 1.5925 4.49922 2.06036C4.51391 2.52823 4.90414 2.89622 5.37222 2.8836H6.86172V1.23713C6.86172 0.926565 6.60988 0.674805 6.29922 0.674805H2.69922C2.38856 0.674805 2.13672 0.926565 2.13672 1.23713H3.62622Z" fill="#25242E"/>
</svg>
